<?xml version="1.0" encoding="UTF-8" standalone="no"?>
<svg
   viewBox="0 0 24 24"
   version="1.1"
   id="svg4"
   sodipodi:docname="save-as.svg"
   inkscape:version="1.2.2 (1:1.2.2+202305151914+b0a8486541)"
   xmlns:inkscape="http://www.inkscape.org/namespaces/inkscape"
   xmlns:sodipodi="http://sodipodi.sourceforge.net/DTD/sodipodi-0.dtd"
   xmlns="http://www.w3.org/2000/svg"
   xmlns:svg="http://www.w3.org/2000/svg">
  <defs
     id="defs8">
    <rect
       x="14.976139"
       y="26.31833"
       width="22.2706"
       height="10.459597"
       id="rect398" />
    <rect
       x="-68.244208"
       y="-84.408797"
       width="640.40687"
       height="265.7809"
       id="rect392" />
    <filter
       id="mask-powermask-path-effect1050_inverse"
       inkscape:label="filtermask-powermask-path-effect1050"
       style="color-interpolation-filters:sRGB"
       height="100"
       width="100"
       x="-50"
       y="-50">
      <feColorMatrix
         id="mask-powermask-path-effect1050_primitive1"
         values="1"
         type="saturate"
         result="fbSourceGraphic" />
      <feColorMatrix
         id="mask-powermask-path-effect1050_primitive2"
         values="-1 0 0 0 1 0 -1 0 0 1 0 0 -1 0 1 0 0 0 1 0 "
         in="fbSourceGraphic" />
    </filter>
  </defs>
  <sodipodi:namedview
     id="namedview6"
     pagecolor="#505050"
     bordercolor="#eeeeee"
     borderopacity="1"
     inkscape:showpageshadow="0"
     inkscape:pageopacity="0"
     inkscape:pagecheckerboard="0"
     inkscape:deskcolor="#505050"
     showgrid="false"
     inkscape:zoom="17.958333"
     inkscape:cx="1.7540603"
     inkscape:cy="10.440835"
     inkscape:window-width="1864"
     inkscape:window-height="1009"
     inkscape:window-x="56"
     inkscape:window-y="36"
     inkscape:window-maximized="1"
     inkscape:current-layer="svg4" />
  <path
     id="path2"
     d="M 4 3 C 3.4477206 3 3 3.4477206 3 4 L 3 20 C 3 20.552299 3.4477206 21 4 21 L 20 21 C 20.552299 21 21 20.552299 21 20 L 21 7.4140625 C 21 7.1488528 20.894531 6.8945611 20.707031 6.7070312 L 17 3 L 4 3 z M 5 5 L 15 5 L 15 9 L 5 9 L 5 5 z M 12 12 C 13.656898 12 15 13.343102 15 15 C 15 16.656898 13.656898 18 12 18 C 10.343102 18 9 16.656898 9 15 C 9 13.343102 10.343102 12 12 12 z M 16.576172 12 L 19.345703 12 L 19.345703 12.732422 L 18.603516 13.074219 L 18.603516 17.011719 L 19.345703 17.353516 L 19.345703 18.085938 L 16.576172 18.085938 L 16.576172 17.353516 L 17.316406 17.011719 L 17.316406 13.074219 L 16.576172 12.732422 L 16.576172 12 z " />
  <text
     xml:space="preserve"
     id="text390"
     style="fill:#56b4ff;stroke-width:1.51181102;font-size:8px;-inkscape-font-specification:'sans-serif Bold';font-family:sans-serif;font-weight:bold;white-space:pre;shape-inside:url(#rect392)" />
</svg>
