<svg version="1.1" xmlns="http://www.w3.org/2000/svg" xmlns:xlink="http://www.w3.org/1999/xlink" width="36" height="36"><g transform="translate(-228,-168)"><g data-paper-data="{&quot;isPaintingLayer&quot;:true}" fill="none" fill-rule="nonzero" stroke="none" stroke-width="1" stroke-linecap="butt" stroke-linejoin="miter" stroke-miterlimit="10" stroke-dasharray="" stroke-dashoffset="0" font-family="none" font-weight="none" font-size="none" text-anchor="none" style="mix-blend-mode: normal"><path d="M228,168h36v36h-36z" fill="none"/><path d="M229.035,178.4955c4.79864,-3.88752 10.78927,-6.00464 16.965,-5.9955c6.4275,0 12.33,2.2455 16.965,5.9955l-2.8275,3.4995c-3.999,-3.23921 -8.9912,-5.00303 -14.1375,-4.995c-5.355,0 -10.275,1.872 -14.1375,4.995zM233.7465,184.3305c3.4659,-2.808 7.79286,-4.33719 12.2535,-4.3305c4.641,0 8.904,1.6215 12.2535,4.329l-2.8275,3.501c-2.66627,-2.15969 -5.99479,-3.33558 -9.426,-3.33c-3.57,0 -6.849,1.248 -9.426,3.33l-2.8275,-3.501zM238.4595,190.1655c2.13277,-1.72816 4.79546,-2.6694 7.5405,-2.6655c2.856,0 5.4795,0.9975 7.5405,2.664l-2.8275,3.501c-1.33319,-1.07974 -2.99742,-1.66767 -4.713,-1.665c-1.71558,-0.00267 -3.37981,0.58526 -4.713,1.665l-2.8275,-3.501zM243.1725,196.0005c0.79957,-0.64842 1.79805,-1.00173 2.8275,-1.0005c1.071,0 2.055,0.375 2.8275,0.999l-2.8275,3.501l-2.8275,-3.501z" fill="#7f7f7f"/></g></g></svg>