<svg version="1.1" xmlns="http://www.w3.org/2000/svg" xmlns:xlink="http://www.w3.org/1999/xlink" width="36" height="36"><g transform="translate(-228,-168)"><g data-paper-data="{&quot;isPaintingLayer&quot;:true}" fill="none" fill-rule="nonzero" stroke="none" stroke-width="1" stroke-linecap="butt" stroke-linejoin="miter" stroke-miterlimit="10" stroke-dasharray="" stroke-dashoffset="0" font-family="none" font-weight="none" font-size="none" text-anchor="none" style="mix-blend-mode: normal"><path d="M228,168h36v36h-36z" fill="none"/><path d="M252.804,191.925l3.18,-3.183l-4.7715,-4.773l5.3025,-5.3025l-3.18,-3.1815l-5.304,5.3025l-4.773,-4.773l-3.183,3.1815zM248.031,176.5455l4.242,-4.2435c0.58575,-0.58557 1.53525,-0.58557 2.121,0l5.304,5.304c0.58557,0.58575 0.58557,1.53525 0,2.121l-4.2435,4.242l3.7125,3.7125c0.28167,0.28135 0.43993,0.66314 0.43993,1.06125c0,0.39811 -0.15826,0.7799 -0.43993,1.06125l-11.667,11.667c-0.58575,0.58557 -1.53525,0.58557 -2.121,0l-14.85,-14.85c-0.58557,-0.58575 -0.58557,-1.53525 0,-2.121l11.667,-11.667c0.28135,-0.28167 0.66314,-0.43993 1.06125,-0.43993c0.39811,0 0.7799,0.15826 1.06125,0.43993z" fill="#000000"/></g></g></svg>