<svg version="1.1" xmlns="http://www.w3.org/2000/svg" xmlns:xlink="http://www.w3.org/1999/xlink" width="36" height="36"><g transform="translate(-228,-168)"><g data-paper-data="{&quot;isPaintingLayer&quot;:true}" fill="none" fill-rule="nonzero" stroke="none" stroke-width="1" stroke-linecap="butt" stroke-linejoin="miter" stroke-miterlimit="10" stroke-dasharray="" stroke-dashoffset="0" font-family="none" font-weight="none" font-size="none" text-anchor="none" style="mix-blend-mode: normal"><path d="M228,168h36v36h-36z" fill="none"/><path d="M232.5,172.5h27c0.82843,0 1.5,0.67157 1.5,1.5v24c0,0.82843 -0.67157,1.5 -1.5,1.5h-27c-0.82843,0 -1.5,-0.67157 -1.5,-1.5v-24c0,-0.82843 0.67157,-1.5 1.5,-1.5zM235.5,178.5v3h3v-3zM235.5,184.5v3h3v-3zM235.5,190.5v3h21v-3zM241.5,184.5v3h3v-3zM241.5,178.5v3h3v-3zM247.5,178.5v3h3v-3zM253.5,178.5v3h3v-3zM247.5,184.5v3h3v-3zM253.5,184.5v3h3v-3z" fill="#000000"/></g></g></svg>