<svg version="1.1" xmlns="http://www.w3.org/2000/svg" xmlns:xlink="http://www.w3.org/1999/xlink" width="36" height="36"><g transform="translate(-228,-168)"><g data-paper-data="{&quot;isPaintingLayer&quot;:true}" fill="none" fill-rule="nonzero" stroke="none" stroke-width="1" stroke-linecap="butt" stroke-linejoin="miter" stroke-miterlimit="10" stroke-dasharray="" stroke-dashoffset="0" font-family="none" font-weight="none" font-size="none" text-anchor="none" style="mix-blend-mode: normal"><path d="M228,168h36v36h-36z" fill="none"/><path d="M255.75,183l6.6,16.5h-3.2325l-1.8015,-4.5h-6.135l-1.7985,4.5h-3.231l6.5985,-16.5zM243,171v3h9v3h-2.952c-1.15707,3.48311 -3.00378,6.69753 -5.43,9.4515c1.08196,0.96542 2.25552,1.82297 3.504,2.5605l-1.1265,2.817c-1.61172,-0.91412 -3.1191,-2.00102 -4.4955,-3.2415c-2.67962,2.42512 -5.85294,4.24079 -9.3015,5.322l-0.804,-2.8935c2.95476,-0.94215 5.67753,-2.49699 7.9905,-4.563c-1.71196,-1.93809 -3.1379,-4.1111 -4.2345,-6.453h3.36c0.83603,1.54328 1.8385,2.9904 2.9895,4.3155c1.87516,-2.16135 3.35296,-4.63754 4.365,-7.314l-14.865,-0.0015v-3h9v-3zM254.25,187.3275l-1.8705,4.6725h3.738z" fill="#000000"/></g></g></svg>