<svg version="1.1" xmlns="http://www.w3.org/2000/svg" xmlns:xlink="http://www.w3.org/1999/xlink" width="36" height="36"><g transform="translate(-228,-168)"><g data-paper-data="{&quot;isPaintingLayer&quot;:true}" fill="none" fill-rule="nonzero" stroke="none" stroke-width="1" stroke-linecap="butt" stroke-linejoin="miter" stroke-miterlimit="10" stroke-dasharray="" stroke-dashoffset="0" font-family="none" font-weight="none" font-size="none" text-anchor="none" style="mix-blend-mode: normal"><path d="M228,168h36v36h-36z" fill="none"/><path d="M237.255,195c0.6351,-1.79994 2.3363,-3.00368 4.245,-3.00368c1.9087,0 3.6099,1.20373 4.245,3.00368h15.255v3h-15.255c-0.6351,1.79994 -2.3363,3.00368 -4.245,3.00368c-1.9087,0 -3.6099,-1.20373 -4.245,-3.00368h-6.255v-3zM246.255,184.5c0.6351,-1.79994 2.3363,-3.00368 4.245,-3.00368c1.9087,0 3.6099,1.20373 4.245,3.00368h6.255v3h-6.255c-0.6351,1.79994 -2.3363,3.00368 -4.245,3.00368c-1.9087,0 -3.6099,-1.20373 -4.245,-3.00368h-15.255v-3zM237.255,174c0.6351,-1.79994 2.3363,-3.00368 4.245,-3.00368c1.9087,0 3.6099,1.20373 4.245,3.00368h15.255v3h-15.255c-0.6351,1.79994 -2.3363,3.00368 -4.245,3.00368c-1.9087,0 -3.6099,-1.20373 -4.245,-3.00368h-6.255v-3z" fill="#000000"/></g></g></svg>
